%
M48
M72
T02C0.0157
T04C0.0236
T06C0.0315
T08C0.0394
T23C0.0945
%
T02
X3327Y13852
X3827Y13852
X4327Y13852
X5702Y17477
X5452Y18352
X5452Y19852
X7202Y18477
X8327Y20852
X8827Y20352
X9577Y19352
X10077Y19352
X10077Y19852
X10077Y20352
X10452Y22852
X11327Y21602
X12327Y22852
X12827Y22852
X13327Y22852
X14702Y21602
X15827Y20852
X16327Y18852
X16827Y18852
X17327Y18852
X16327Y17102
X16327Y16602
X15077Y15352
X15077Y14852
X15077Y14352
X15077Y12102
X15577Y12102
X14577Y12102
X12453Y14852
X12327Y15852
X12827Y15852
X13327Y15852
X10327Y15852
X9827Y15852
X9327Y15852
X9827Y14852
X10452Y13852
X9327Y10602
X8827Y10602
X8327Y10602
X10452Y17852
X7702Y22852
X7327Y23852
X6827Y23852
X6327Y23852
X10827Y28352
X10327Y33852
X9827Y33852
X9327Y33852
X10452Y35852
X10327Y36852
X9827Y36852
X9327Y36852
X8327Y40602
X6827Y40852
X6827Y40352
X6827Y39852
X5827Y41852
X5327Y40852
X5327Y40352
X5327Y39852
X8327Y47852
X9452Y47852
X8202Y50227
X6577Y52602
X5952Y50852
X4952Y50852
X5952Y54852
X7327Y57352
X7827Y57352
X8327Y57352
X8577Y54102
X5452Y59977
X8327Y63352
X8827Y63352
X9327Y63352
X12827Y57352
X13327Y57352
X13827Y57352
X15327Y54852
X15827Y54852
X16327Y54852
X14827Y49852
X14077Y49852
X13577Y49852
X13452Y48852
X13077Y49852
X13827Y46852
X14327Y46852
X14827Y46852
X14327Y45852
X14327Y43352
X15202Y41352
X15202Y39852
X16827Y38852
X16827Y38352
X17327Y38352
X17327Y38852
X17202Y36727
X17327Y35102
X17327Y34477
X18077Y34477
X18077Y33852
X18577Y33852
X18077Y33102
X17577Y32602
X17577Y30102
X18077Y29602
X17827Y29102
X17327Y29102
X16827Y29102
X15577Y28852
X15577Y29602
X15077Y30102
X14577Y30102
X14077Y30102
X14077Y32602
X14577Y32602
X15077Y32602
X15577Y33102
X16827Y35102
X20077Y32602
X20077Y30102
X21577Y30102
X21577Y29602
X21577Y29102
X21577Y32602
X22077Y32602
X22577Y32602
X22827Y35852
X23327Y35852
X23827Y35852
X22827Y37352
X22327Y37352
X21827Y37352
X20827Y38352
X20827Y38852
X20327Y38852
X20327Y38352
X20702Y36227
X22452Y39352
X22452Y40352
X20827Y41852
X20827Y42352
X20327Y42352
X20327Y41852
X20202Y43977
X21827Y43602
X22327Y44102
X23327Y43352
X22452Y45852
X23952Y48852
X23577Y49602
X23077Y49602
X22577Y49602
X24452Y50852
X25452Y50852
X26077Y52602
X25452Y54852
X26827Y57352
X27327Y57352
X27827Y57352
X28077Y54102
X27702Y50227
X27827Y47852
X28952Y47852
X28827Y44852
X28327Y44852
X27827Y44852
X26577Y45852
X25327Y46852
X24827Y46852
X24327Y46852
X24827Y45852
X29077Y41352
X29077Y40852
X29077Y40352
X29577Y37852
X29077Y35852
X29077Y35352
X29077Y34852
X27077Y35852
X26577Y35852
X26077Y35852
X28077Y28852
X28452Y28477
X27327Y26852
X27327Y26352
X27327Y25852
X27327Y22852
X27827Y22852
X28327Y22852
X28827Y20852
X29327Y20852
X29827Y20852
X30327Y22852
X30827Y22852
X31327Y22852
X32827Y21602
X32827Y21102
X32827Y20602
X32827Y17852
X32327Y17852
X31827Y17852
X31827Y14852
X32327Y14852
X32827Y14852
X29327Y11352
X28827Y11352
X28327Y11352
X27077Y17852
X27077Y18352
X27077Y18852
X26827Y20852
X26327Y20852
X25827Y20852
X23827Y20852
X23327Y20852
X22827Y20852
X24077Y18852
X24077Y18352
X24077Y17852
X22077Y16852
X21577Y16852
X18327Y21852
X18327Y22352
X18327Y22852
X16327Y22852
X16327Y23352
X15827Y23352
X15327Y23352
X15577Y28102
X16827Y41852
X16827Y42352
X17327Y42352
X17327Y41852
X17452Y43977
X16327Y44852
X16327Y45352
X16327Y45852
X16452Y47852
X16577Y49602
X17077Y49602
X17577Y49602
X18202Y47852
X19077Y49852
X19577Y49852
X19452Y48852
X20077Y49852
X19452Y53852
X21327Y54852
X21827Y54852
X22327Y54852
X25077Y59852
X28327Y63352
X28827Y63352
X29327Y63352
X32327Y57352
X32827Y57352
X33327Y57352
X32702Y53852
X31952Y53852
X32077Y49852
X32077Y49352
X32077Y48852
X33077Y48852
X33077Y49352
X33077Y49852
X34327Y48352
X31327Y43352
X25327Y25852
X24827Y25852
X24327Y25852
X11952Y45852
X10077Y44852
X12452Y53852
X13202Y53852
T04
X17327Y15852
X17327Y14852
X18827Y14852
X18827Y15852
X20327Y15852
X20327Y14852
X21827Y14852
X21827Y15852
T06
X12827Y12852
X12827Y10852
X15827Y46852
X15827Y48852
X21827Y48852
X21827Y46852
X19327Y63852
X18327Y63852
T08
X8827Y61352
X7827Y61352
X12827Y35852
X12827Y34852
X12827Y33852
X13827Y33852
X13827Y34852
X13827Y35852
X12827Y20852
X12827Y19852
X12827Y18852
X12827Y17852
X9319Y12456
X9319Y11669
X8335Y11669
X8335Y12456
X7827Y14852
X7827Y15852
X7827Y16852
X6827Y16852
X6827Y15852
X6827Y14852
X28827Y13352
X29827Y13352
X28827Y61352
X27827Y61352
T23
X6327Y10602
X11327Y10602
X26827Y11352
X30827Y11352
X30827Y63352
X26827Y63352
X10827Y63352
X6827Y63352
M30
